<svg version="1.1" id="Layer_1" xmlns="http://www.w3.org/2000/svg" xmlns:xlink="http://www.w3.org/1999/xlink" x="0px" y="0px"
	 width="100%" viewBox="0 0 219 59" enable-background="new 0 0 219 59" xml:space="preserve">
<path fill="#131721" opacity="1.000000" stroke="none" 
	d="
M1.000000,43.000000 
	C1.000000,29.020239 1.000000,15.040478 1.000008,1.060849 
	C74.000023,1.060981 147.000031,1.060981 220.000000,1.060981 
	C220.000000,14.768869 220.000000,28.415775 219.531342,42.533493 
	C146.375122,43.002869 73.687561,43.001434 1.000000,43.000000 
M81.463112,14.227003 
	C80.009308,13.335375 78.555504,12.443748 76.777885,11.353521 
	C75.960922,12.280549 74.791229,13.607835 73.621536,14.935121 
	C75.043800,17.375490 75.382370,19.942381 75.644753,22.517038 
	C76.107140,27.054417 78.074486,28.031574 81.719162,26.182243 
	C80.638527,24.648703 79.121986,23.213404 78.502998,21.461058 
	C77.394661,18.323404 78.941704,16.093363 82.881554,14.413643 
	C83.926476,18.537802 84.971397,22.661961 86.016312,26.786119 
	C86.331512,26.968075 86.646713,27.150030 86.961914,27.331985 
	C87.765007,23.186977 88.568092,19.041969 89.526978,14.092895 
	C89.674179,14.216217 88.813133,13.494857 87.709747,12.570471 
	C89.442429,11.469352 90.764366,10.629259 92.086304,9.789166 
	C91.691315,9.252899 91.296333,8.716631 90.901344,8.180364 
	C89.145218,9.550444 87.403862,10.940037 85.627869,12.283843 
	C84.414780,13.201723 83.153343,14.055714 81.463112,14.227003 
M51.485878,16.790495 
	C51.646599,10.629786 49.411350,9.268512 40.703484,10.429138 
	C40.703484,15.530426 40.689125,20.671310 40.731720,25.811726 
	C40.735001,26.207325 41.139568,26.599602 42.061378,28.264545 
	C42.944317,25.372618 43.513100,23.509642 43.743137,22.756191 
	C46.988220,20.877728 49.454330,19.450184 51.932194,18.860245 
	C51.929932,19.684889 51.851570,20.517654 51.938549,21.332777 
	C52.319904,24.906754 53.936802,27.110506 57.923038,27.082125 
	C62.014503,27.052998 63.763897,24.407532 63.618103,21.099367 
	C63.517242,18.810728 62.225082,15.695733 60.439503,14.553566 
	C57.276989,12.530628 54.224846,14.406452 51.485878,16.790495 
M14.516587,12.037151 
	C14.080066,13.669613 13.643543,15.302074 12.890249,17.591372 
	C12.405931,18.364061 11.921612,19.136749 11.312960,20.107801 
	C9.956270,16.462666 8.734337,13.179587 7.512403,9.896511 
	C7.098148,9.942929 6.683893,9.989348 6.269638,10.035768 
	C5.157091,15.607624 4.044544,21.179482 2.931998,26.751337 
	C3.512121,26.894093 4.092244,27.036846 4.672368,27.179602 
	C5.530271,24.396399 6.388174,21.613197 7.488683,18.042936 
	C8.876394,21.363804 9.893290,23.797287 11.156186,26.819464 
	C13.031035,23.367958 14.447025,20.761190 15.865231,18.811165 
	C16.165972,19.882956 16.466713,20.954746 16.767454,22.026539 
	C17.078930,21.990606 17.390408,21.954674 17.701883,21.918743 
	C17.804882,20.604235 17.907883,19.289728 18.102791,17.157171 
	C17.693802,15.082591 17.284813,13.008010 16.875826,10.933429 
	C16.222988,11.163662 15.570150,11.393895 14.516587,12.037151 
M24.365976,28.170313 
	C23.272455,29.185501 22.178932,30.200689 20.828447,31.454432 
	C26.126907,31.808851 29.907902,25.200333 31.274965,14.157521 
	C30.853117,13.931748 30.431269,13.705975 30.009420,13.480202 
	C28.748217,16.173311 27.487011,18.866423 26.165108,21.689142 
	C24.519369,18.777506 23.052874,16.182985 21.586376,13.588465 
	C21.127928,13.858479 20.669477,14.128492 20.211027,14.398506 
	C21.647087,18.716574 23.083145,23.034641 24.365976,28.170313 
M96.913330,26.995810 
	C99.160263,26.039518 102.706863,25.603436 103.347046,24.004026 
	C104.288269,21.652521 103.731995,18.217987 102.653954,15.751770 
	C102.137169,14.569515 98.756424,13.775732 97.046112,14.225583 
	C95.391808,14.660704 93.501823,16.703407 92.984810,18.421909 
	C92.000244,21.694559 92.461685,25.028273 96.913330,26.995810 
M119.910400,17.449568 
	C118.969917,23.466602 120.201363,26.425732 123.983856,27.009693 
	C127.077652,27.487331 130.207397,26.670589 130.590103,23.436829 
	C130.916092,20.682398 130.366028,16.800827 128.591888,15.067482 
	C126.094910,12.627932 122.442566,13.249992 119.910400,17.449568 
M110.948814,26.345285 
	C110.300858,22.121395 109.724426,17.884655 108.969078,13.680058 
	C108.674828,12.042155 107.977493,10.476665 107.463768,8.878190 
	C106.974457,9.039213 106.485153,9.200235 105.995842,9.361258 
	C105.995842,13.656674 106.050606,17.953026 105.977257,22.247192 
	C105.925362,25.285904 107.257713,26.868370 110.948814,26.345285 
z"/>
<path fill="#11151F" opacity="1.000000" stroke="none" 
	d="
M220.000000,45.000000 
	C220.000000,49.991039 220.000000,54.982082 220.000000,59.966618 
	C146.999985,59.960114 73.999985,59.960114 1.000000,59.960114 
	C1.000000,55.261929 1.000000,50.603626 1.468657,45.472664 
	C74.624878,45.000000 147.312439,45.000000 220.000000,45.000000 
z"/>
<path fill="#008080" opacity="1.000000" stroke="none" 
	d="
M220.000000,44.666668 
	C147.312439,45.000000 74.624878,45.000000 1.468657,45.000000 
	C1.000000,44.555553 1.000000,44.111111 1.000000,43.333332 
	C73.687561,43.001434 146.375122,43.002869 219.531342,43.002151 
	C220.000000,43.444447 220.000000,43.888889 220.000000,44.666668 
z"/>
<path fill="#E9EFE7" opacity="1.000000" stroke="none" 
	d="
M15.863014,18.154421 
	C14.447025,20.761190 13.031035,23.367958 11.156186,26.819464 
	C9.893290,23.797287 8.876394,21.363804 7.488683,18.042936 
	C6.388174,21.613197 5.530271,24.396399 4.672368,27.179602 
	C4.092244,27.036846 3.512121,26.894093 2.931998,26.751337 
	C4.044544,21.179482 5.157091,15.607624 6.269638,10.035768 
	C6.683893,9.989348 7.098148,9.942929 7.512403,9.896511 
	C8.734337,13.179587 9.956270,16.462666 11.312960,20.107801 
	C11.921612,19.136749 12.405931,18.364061 13.286862,17.038101 
	C14.094755,14.864598 14.506035,13.244364 14.917315,11.624128 
	C15.570150,11.393895 16.222988,11.163662 16.875826,10.933430 
	C17.284813,13.008010 17.693802,15.082591 17.697269,17.579338 
	C16.815502,18.052475 16.339258,18.103449 15.863014,18.154421 
z"/>
<path fill="#F3F5EE" opacity="1.000000" stroke="none" 
	d="
M51.920441,18.022640 
	C49.454330,19.450184 46.988220,20.877728 43.743137,22.756191 
	C43.513100,23.509642 42.944317,25.372618 42.061378,28.264545 
	C41.139568,26.599602 40.735001,26.207325 40.731720,25.811726 
	C40.689125,20.671310 40.703484,15.530426 40.703484,10.429138 
	C49.411350,9.268512 51.646599,10.629786 51.707314,17.203011 
	C51.928753,17.615528 51.920441,18.022638 51.920441,18.022640 
M47.499630,13.003948 
	C46.290615,12.752019 45.081596,12.500091 43.528191,12.176399 
	C43.528191,14.682619 43.528191,16.712782 43.528191,19.035503 
	C47.202560,18.618061 50.295582,18.224596 47.499630,13.003948 
z"/>
<path fill="#D9E3DC" opacity="1.000000" stroke="none" 
	d="
M24.442589,27.761511 
	C23.083145,23.034641 21.647087,18.716574 20.211027,14.398506 
	C20.669477,14.128492 21.127928,13.858479 21.586376,13.588465 
	C23.052874,16.182985 24.519369,18.777506 26.165108,21.689142 
	C27.487011,18.866423 28.748217,16.173311 30.009420,13.480202 
	C30.431269,13.705975 30.853117,13.931748 31.274965,14.157521 
	C29.907902,25.200333 26.126907,31.808851 20.828447,31.454432 
	C22.178932,30.200689 23.272455,29.185501 24.442589,27.761511 
z"/>
<path fill="#E6ECE7" opacity="1.000000" stroke="none" 
	d="
M96.523544,26.923828 
	C92.461685,25.028273 92.000244,21.694559 92.984810,18.421909 
	C93.501823,16.703407 95.391808,14.660704 97.046112,14.225583 
	C98.756424,13.775732 102.137169,14.569515 102.653954,15.751770 
	C103.731995,18.217987 104.288269,21.652521 103.347046,24.004026 
	C102.706863,25.603436 99.160263,26.039518 96.523544,26.923828 
M96.014313,17.551140 
	C95.914108,19.316641 95.329887,21.259678 95.888794,22.783415 
	C96.244225,23.752413 98.296959,24.098837 99.588585,24.724438 
	C100.115196,22.502794 100.801048,20.292021 100.954430,18.044901 
	C100.972359,17.782286 98.051384,17.319059 96.014313,17.551140 
z"/>
<path fill="#DBE7E5" opacity="1.000000" stroke="none" 
	d="
M120.048676,17.084320 
	C122.442566,13.249992 126.094910,12.627932 128.591888,15.067482 
	C130.366028,16.800827 130.916092,20.682398 130.590103,23.436829 
	C130.207397,26.670589 127.077652,27.487331 123.983856,27.009693 
	C120.201363,26.425732 118.969917,23.466602 120.048676,17.084320 
M123.997688,24.682289 
	C128.549545,25.411875 128.514389,22.161535 128.050659,19.402298 
	C127.840546,18.152130 125.914803,17.190302 124.767357,16.097668 
	C123.936745,18.056112 122.976707,19.975000 122.358292,21.998304 
	C122.183990,22.568598 123.010826,23.444889 123.997688,24.682289 
z"/>
<path fill="#E5E9E0" opacity="1.000000" stroke="none" 
	d="
M51.926315,18.441441 
	C51.920441,18.022638 51.928753,17.615528 51.953407,17.413328 
	C54.224846,14.406452 57.276989,12.530628 60.439503,14.553566 
	C62.225082,15.695733 63.517242,18.810728 63.618103,21.099367 
	C63.763897,24.407532 62.014503,27.052998 57.923038,27.082125 
	C53.936802,27.110506 52.319904,24.906754 51.938549,21.332777 
	C51.851570,20.517654 51.929932,19.684889 51.926315,18.441441 
M60.122616,23.531105 
	C60.233700,21.644426 60.764877,19.635609 60.267761,17.925758 
	C60.040173,17.142962 57.789280,16.948418 56.455978,16.487093 
	C55.981709,18.588715 55.196140,20.699665 55.258644,22.785200 
	C55.273701,23.287685 58.098293,23.705971 60.122616,23.531105 
z"/>
<path fill="#E9EFEB" opacity="1.000000" stroke="none" 
	d="
M81.895073,14.790874 
	C78.941704,16.093363 77.394661,18.323404 78.502998,21.461058 
	C79.121986,23.213404 80.638527,24.648703 81.719162,26.182243 
	C78.074486,28.031574 76.107140,27.054417 75.644753,22.517038 
	C75.382370,19.942381 75.043800,17.375490 73.621536,14.935121 
	C74.791229,13.607835 75.960922,12.280549 76.777885,11.353521 
	C78.555504,12.443748 80.009308,13.335375 81.709068,14.561892 
	C81.955025,14.896779 81.895073,14.790874 81.895073,14.790874 
z"/>
<path fill="#EFF1E6" opacity="1.000000" stroke="none" 
	d="
M82.388313,14.602259 
	C81.895073,14.790874 81.955025,14.896779 81.934280,14.917524 
	C83.153343,14.055714 84.414780,13.201723 85.627869,12.283843 
	C87.403862,10.940037 89.145218,9.550444 90.901344,8.180364 
	C91.296333,8.716631 91.691315,9.252899 92.086304,9.789166 
	C90.764366,10.629259 89.442429,11.469352 87.709747,12.570471 
	C88.813133,13.494857 89.674179,14.216217 89.526978,14.092895 
	C88.568092,19.041969 87.765007,23.186977 86.961914,27.331985 
	C86.646713,27.150030 86.331512,26.968075 86.016312,26.786119 
	C84.971397,22.661961 83.926476,18.537802 82.388313,14.602259 
z"/>
<path fill="#FBFBFA" opacity="1.000000" stroke="none" 
	d="
M110.641434,26.621248 
	C107.257713,26.868370 105.925362,25.285904 105.977257,22.247192 
	C106.050606,17.953026 105.995842,13.656674 105.995842,9.361258 
	C106.485153,9.200235 106.974457,9.039213 107.463768,8.878190 
	C107.977493,10.476665 108.674828,12.042155 108.969078,13.680058 
	C109.724426,17.884655 110.300858,22.121395 110.641434,26.621248 
z"/>
<path fill="#E2EDEA" opacity="1.000000" stroke="none" 
	d="
M15.864122,18.482792 
	C16.339258,18.103449 16.815502,18.052475 17.651314,17.988361 
	C17.907883,19.289728 17.804882,20.604235 17.701883,21.918743 
	C17.390408,21.954674 17.078930,21.990606 16.767454,22.026539 
	C16.466713,20.954746 16.165972,19.882956 15.864122,18.482792 
z"/>
<path fill="#E2EDEA" opacity="1.000000" stroke="none" 
	d="
M14.716951,11.830640 
	C14.506035,13.244364 14.094755,14.864598 13.445248,16.709684 
	C13.643543,15.302074 14.080066,13.669613 14.716951,11.830640 
z"/>
<path fill="#373439" opacity="1.000000" stroke="none" 
	d="
M47.792580,13.245987 
	C50.295582,18.224596 47.202560,18.618061 43.528191,19.035503 
	C43.528191,16.712782 43.528191,14.682619 43.528191,12.176399 
	C45.081596,12.500091 46.290615,12.752019 47.792580,13.245987 
z"/>
<path fill="#212631" opacity="1.000000" stroke="none" 
	d="
M96.253586,17.249989 
	C98.051384,17.319059 100.972359,17.782286 100.954430,18.044901 
	C100.801048,20.292021 100.115196,22.502794 99.588585,24.724438 
	C98.296959,24.098837 96.244225,23.752413 95.888794,22.783415 
	C95.329887,21.259678 95.914108,19.316641 96.253586,17.249989 
z"/>
<path fill="#251D29" opacity="1.000000" stroke="none" 
	d="
M123.688080,24.431561 
	C123.010826,23.444889 122.183990,22.568598 122.358292,21.998304 
	C122.976707,19.975000 123.936745,18.056112 124.767365,16.097668 
	C125.914803,17.190302 127.840546,18.152130 128.050659,19.402298 
	C128.514389,22.161535 128.549545,25.411875 123.688080,24.431561 
z"/>
<path fill="#1E2033" opacity="1.000000" stroke="none" 
	d="
M59.876732,23.847042 
	C58.098293,23.705971 55.273701,23.287685 55.258644,22.785200 
	C55.196140,20.699665 55.981709,18.588715 56.455978,16.487093 
	C57.789280,16.948418 60.040173,17.142962 60.267761,17.925758 
	C60.764877,19.635609 60.233700,21.644426 59.876732,23.847042 
z"/>
</svg>