<svg version="1.1" id="Layer_1" xmlns="http://www.w3.org/2000/svg" xmlns:xlink="http://www.w3.org/1999/xlink" x="0px" y="0px"
	 width="100%" viewBox="0 0 217 203" enable-background="new 0 0 217 203" xml:space="preserve">
<path fill="#F3F3F3" opacity="1.000000" stroke="none" 
	d="
M136.000000,204.000000 
	C90.666672,204.000000 45.833340,204.000000 1.000006,204.000000 
	C1.000004,136.333344 1.000004,68.666679 1.000002,1.000015 
	C73.333321,1.000010 145.666641,1.000010 217.999969,1.000005 
	C217.999985,68.666649 217.999985,136.333298 218.000000,203.999969 
	C190.833328,204.000000 163.666672,204.000000 136.000000,204.000000 
M121.371086,25.865805 
	C119.838814,25.121710 117.613579,23.345493 116.901764,23.823408 
	C114.592926,25.373562 110.256546,25.029905 110.184120,29.834665 
	C110.055252,29.949593 109.926392,30.064518 109.202950,29.801044 
	C107.788582,30.015202 106.157066,29.845688 104.994041,30.503937 
	C95.279327,36.002258 85.835258,42.011662 75.919876,47.108891 
	C70.823280,49.728912 69.068207,52.733776 70.825813,58.675274 
	C70.679291,59.759388 70.532776,60.843506 70.201332,62.857086 
	C70.194443,75.988251 70.130386,89.119949 70.254974,102.249870 
	C70.270088,103.842712 70.833252,106.083511 71.955460,106.883522 
	C74.716614,108.851898 77.951546,110.155670 81.589432,111.886803 
	C82.055511,112.268944 82.521591,112.651077 83.288353,113.652168 
	C87.224648,115.936981 91.066322,118.417946 95.153748,120.389427 
	C96.412254,120.996437 98.341827,120.212151 99.994507,120.000290 
	C99.994507,120.000290 99.933647,120.037727 100.001907,120.816620 
	C100.447289,121.919228 100.574219,123.524574 101.390495,124.041618 
	C106.154922,127.059471 111.045135,129.886230 115.969627,132.640259 
	C117.996132,133.773590 126.293816,130.262619 126.974159,128.004929 
	C127.132210,127.480446 126.281807,126.652077 126.448479,125.833023 
	C126.634888,125.799416 126.821304,125.765816 127.658798,126.043076 
	C128.245056,126.330551 129.098236,127.027641 129.378250,126.845177 
	C135.302811,122.984360 141.162827,119.024483 147.825195,115.005653 
	C148.810318,114.941025 149.983902,115.202118 150.750000,114.758911 
	C155.714767,111.886597 161.609070,109.721497 165.119766,105.567574 
	C167.277908,103.014000 165.760757,97.343002 165.866272,93.071114 
	C165.911194,91.251808 166.122208,89.389206 165.812485,87.624428 
	C165.588715,86.349556 164.630157,85.203651 164.206726,83.259300 
	C164.741486,82.073029 165.722504,80.893318 165.740067,79.699448 
	C165.874420,70.562698 165.869202,61.422562 165.750092,52.285526 
	C165.738525,51.397675 164.864563,50.190105 164.048752,49.696945 
	C158.398254,46.281204 152.688232,42.958801 146.902695,39.778557 
	C146.234695,39.411366 144.984818,40.102673 143.489731,40.140137 
	C143.314484,40.098789 143.139221,40.057446 143.194763,39.222599 
	C142.883652,38.472492 142.787018,37.354675 142.228424,37.028851 
	C136.295898,33.568451 130.289978,30.233871 123.938049,26.296637 
	C123.285622,26.271082 122.633202,26.245529 121.371086,25.865805 
M82.688354,166.577637 
	C82.688354,164.481354 82.688354,162.385071 82.688354,159.500580 
	C84.233345,160.358856 85.009369,160.712860 85.698425,161.191971 
	C86.587227,161.809982 87.406433,162.528076 88.255623,163.203064 
	C88.542618,161.919540 89.349236,159.681198 89.031746,159.508438 
	C87.061150,158.436020 84.829140,157.247513 82.702538,157.281052 
	C81.419228,157.301300 79.274048,159.329605 79.078438,160.681656 
	C78.560944,164.258499 79.100868,167.973633 78.833549,171.605286 
	C78.534492,175.668076 79.956535,177.099167 84.165283,177.181747 
	C88.654243,177.269882 89.625351,175.197632 89.443298,171.476532 
	C89.372597,170.031372 89.431740,168.579849 89.431740,166.637024 
	C87.297081,166.802567 85.688248,166.927338 83.698570,167.081650 
	C84.244179,168.249771 84.523483,168.647888 84.617699,169.085831 
	C84.938515,170.577103 85.230217,172.078476 85.395279,173.591034 
	C85.406578,173.694611 84.283195,173.921997 83.687508,174.091797 
	C83.342056,172.738159 82.930473,171.396790 82.676331,170.026215 
	C82.527374,169.222885 82.629272,168.373062 82.688354,166.577637 
M142.036926,172.376343 
	C142.036880,170.883743 141.880341,169.371399 142.065857,167.902222 
	C142.644547,163.319458 141.101929,160.810654 136.141602,161.822739 
	C135.645828,156.404144 135.645828,156.404144 132.167358,156.495316 
	C132.167358,163.233963 132.167358,169.975021 132.167358,177.702057 
	C139.162201,174.711533 133.393784,167.881485 137.743713,163.666428 
	C137.743713,168.538834 137.743713,172.477264 137.743713,176.311005 
	C141.695969,176.817596 141.695969,176.817596 142.036926,172.376343 
M151.465271,171.408096 
	C154.017578,172.585999 152.478012,178.893921 158.495880,176.315720 
	C153.389099,170.346161 153.465805,164.031097 157.775085,157.836166 
	C152.337265,155.101135 153.946777,161.300720 151.480225,162.011871 
	C150.094482,160.037521 150.784332,155.754974 145.598038,157.694244 
	C149.870834,163.901840 150.034439,170.217270 145.313553,176.446182 
	C150.388611,178.140030 149.971756,174.195175 151.465271,171.408096 
M121.573349,178.017273 
	C123.646362,176.851547 127.165596,176.000443 127.501419,174.456787 
	C128.280945,170.873611 128.292862,166.661331 127.012489,163.318146 
	C126.495934,161.969376 121.790794,162.210571 118.984169,161.777985 
	C118.739799,161.740326 118.437912,162.075745 118.129105,162.257706 
	C118.129105,168.485458 118.129105,174.721039 118.129105,180.956604 
	C118.499306,181.186890 118.869507,181.417175 119.239708,181.647476 
	C119.990883,180.705551 120.742058,179.763626 121.573349,178.017273 
M103.991333,168.562439 
	C103.993652,177.771973 104.011574,177.786850 113.577240,176.492950 
	C113.577240,171.627441 113.577240,166.766251 113.577240,161.921921 
	C104.092278,161.783524 104.092278,161.783524 103.991333,168.562439 
M93.963234,173.294342 
	C94.291924,176.801086 94.291924,176.801086 97.008835,176.499985 
	C97.999268,171.543472 98.960121,166.735016 99.929558,161.883621 
	C98.498222,161.883621 96.438980,161.883621 93.963058,161.883621 
	C93.963058,165.505157 93.963058,168.931824 93.963234,173.294342 
z"/>
<path fill="#333B43" opacity="1.000000" stroke="none" 
	d="
M80.995941,111.726715 
	C77.951546,110.155670 74.716614,108.851898 71.955460,106.883522 
	C70.833252,106.083511 70.270088,103.842712 70.254974,102.249870 
	C70.130386,89.119949 70.194443,75.988251 70.455170,62.230064 
	C71.004356,61.071800 71.299706,60.540558 71.763031,60.197945 
	C71.968941,60.550632 72.006874,60.714687 72.172531,61.197140 
	C73.523933,62.385986 74.747612,63.256439 75.971291,64.126892 
	C76.308861,63.656811 76.646423,63.186726 76.983994,62.716644 
	C75.738930,61.809437 74.493866,60.902229 73.105972,59.702404 
	C72.638809,59.256920 72.314484,59.104053 71.990593,58.985046 
	C71.991028,59.018902 72.055336,59.040092 72.114120,58.647194 
	C71.770752,58.154926 71.368584,58.055561 70.962029,57.976318 
	C70.957634,57.996441 70.990929,57.985260 70.990929,57.985260 
	C69.068207,52.733776 70.823280,49.728912 75.919876,47.108891 
	C85.835258,42.011662 95.279327,36.002258 104.994041,30.503937 
	C106.157066,29.845688 107.788582,30.015202 109.537888,30.325958 
	C110.261909,31.066572 110.650986,31.282274 111.040070,31.497974 
	C110.888786,30.834690 110.737503,30.171406 110.586227,29.508120 
	C110.256546,25.029905 114.592926,25.373562 116.901764,23.823408 
	C117.613579,23.345493 119.838814,25.121710 121.655190,26.203892 
	C121.939293,26.541979 121.866409,26.858387 121.557571,26.941689 
	C120.675880,27.833950 120.103027,28.642912 119.530182,29.451872 
	C120.004128,29.687189 120.478081,29.922504 120.952034,30.157822 
	C121.364082,29.157267 121.776131,28.156712 122.538849,27.095871 
	C123.361099,26.978615 123.832672,26.921644 124.304253,26.864674 
	C130.289978,30.233871 136.295898,33.568451 142.228424,37.028851 
	C142.787018,37.354675 142.883652,38.472492 142.833450,39.832985 
	C142.221664,41.763721 141.971207,43.084076 141.720749,44.404430 
	C142.057846,44.489006 142.394943,44.573582 142.732040,44.658157 
	C143.156281,43.206512 143.580505,41.754864 144.004730,40.303215 
	C144.984818,40.102673 146.234695,39.411366 146.902695,39.778557 
	C152.688232,42.958801 158.398254,46.281204 164.048752,49.696945 
	C164.864563,50.190105 165.738525,51.397675 165.750092,52.285526 
	C165.869202,61.422562 165.874420,70.562698 165.740067,79.699448 
	C165.722504,80.893318 164.741486,82.073029 163.811813,83.836807 
	C162.911880,85.781319 162.564011,87.234512 161.870911,88.498383 
	C160.127319,91.677895 159.560150,96.596474 155.003204,94.526352 
	C155.172211,96.449890 156.187668,98.976685 155.391052,100.630814 
	C152.983337,105.630333 149.872330,110.291138 147.035446,115.083969 
	C141.162827,119.024483 135.302811,122.984360 129.378250,126.845177 
	C129.098236,127.027641 128.245056,126.330551 127.325882,125.543243 
	C125.698875,123.662399 124.404778,122.281387 123.069527,120.539322 
	C121.873650,118.686211 120.718918,117.194160 119.564194,115.702110 
	C118.996666,116.268097 118.429138,116.834084 117.861610,117.400063 
	C119.541862,118.634155 121.222115,119.868248 122.931778,121.443390 
	C123.939278,123.177467 124.917351,124.570503 125.895424,125.963539 
	C126.281807,126.652077 127.132210,127.480446 126.974159,128.004929 
	C126.293816,130.262619 117.996132,133.773590 115.969627,132.640259 
	C111.045135,129.886230 106.154922,127.059471 101.390495,124.041618 
	C100.574219,123.524574 100.447289,121.919228 100.307312,120.369789 
	C101.750809,118.348114 102.888901,116.773277 104.026993,115.198441 
	C103.431267,114.903236 102.835533,114.608025 102.239807,114.312813 
	C101.481247,116.230179 100.722687,118.147552 99.964127,120.064919 
	C98.341827,120.212151 96.412254,120.996437 95.153748,120.389427 
	C91.066322,118.417946 87.224648,115.936981 83.187447,112.972641 
	C83.697899,110.142105 84.309265,107.991104 84.920624,105.840096 
	C84.546814,105.793427 84.173012,105.746758 83.799202,105.700089 
	C82.864784,107.708961 81.930359,109.717842 80.995941,111.726715 
M99.757812,92.565689 
	C99.413734,92.580269 99.069649,92.594841 98.725571,92.609421 
	C99.122971,92.762016 99.520370,92.914604 100.203278,93.569595 
	C100.782547,94.061050 101.361809,94.552513 101.993401,95.776016 
	C102.103340,96.259895 102.049271,96.913620 102.347946,97.202026 
	C106.460464,101.173019 109.522720,105.312782 105.178253,111.023743 
	C105.048279,111.194595 105.381493,111.717812 105.558723,112.260307 
	C110.815834,103.478073 109.961159,99.471382 101.936790,94.310265 
	C101.300613,93.851448 100.664444,93.392632 99.757812,92.565689 
M112.775131,33.536839 
	C112.410744,33.555035 112.046364,33.573235 111.681976,33.591431 
	C112.093498,33.756142 112.505020,33.920853 113.150635,34.579296 
	C113.450699,35.294109 113.750763,36.008923 114.050827,36.723736 
	C114.410751,36.466213 114.770683,36.208687 115.130608,35.951164 
	C114.438698,35.274933 113.746788,34.598698 112.775131,33.536839 
M143.762756,78.576645 
	C143.419098,78.589844 143.075455,78.603043 142.731796,78.616226 
	C143.134201,78.764290 143.536591,78.912346 143.985016,79.751282 
	C144.643890,80.512978 145.302765,81.274673 145.993134,82.724442 
	C146.630661,83.483803 147.268188,84.243172 147.954910,85.705719 
	C148.961105,87.031151 149.967285,88.356583 150.973480,89.682014 
	C151.337463,89.372002 151.701447,89.061989 152.065430,88.751984 
	C151.044662,87.458687 150.023895,86.165390 148.913589,84.225525 
	C147.955688,83.470642 146.997772,82.715752 146.000854,81.268425 
	C145.344681,80.495506 144.688507,79.722595 143.762756,78.576645 
M130.768814,59.561939 
	C130.417526,59.574623 130.066254,59.587311 129.714966,59.599998 
	C130.112457,59.765701 130.509949,59.931400 131.385513,60.546391 
	C132.238098,60.179970 133.090683,59.813553 133.943268,59.447132 
	C133.687134,59.054234 133.431015,58.661335 133.174881,58.268436 
	C132.462646,58.825150 131.750412,59.381866 130.768814,59.561939 
M137.016235,68.397438 
	C136.807831,67.905106 136.599426,67.412773 136.391022,66.920448 
	C136.193970,67.143906 135.787735,67.495598 135.833466,67.570198 
	C136.154572,68.093979 136.568878,68.560638 136.988495,69.752274 
	C137.820312,71.057610 138.652130,72.362953 139.483932,73.668297 
	C139.983795,73.293190 140.483643,72.918091 140.983490,72.542984 
	C139.671753,71.346344 138.360001,70.149712 137.016235,68.397438 
M124.009331,49.230633 
	C123.080070,47.557285 122.150803,45.883942 121.221535,44.210598 
	C120.708466,44.636398 120.195404,45.062202 119.682335,45.488007 
	C121.098495,47.015041 122.514664,48.542076 123.978851,50.798111 
	C125.051956,52.860783 126.125061,54.923450 127.198166,56.986122 
	C127.782982,56.588356 128.367798,56.190586 128.952606,55.792816 
	C127.325920,53.838875 125.699234,51.884937 124.009331,49.230633 
M86.026031,75.180847 
	C84.872841,73.687668 83.719650,72.194496 82.566467,70.701317 
	C82.010178,71.276550 81.453888,71.851784 80.897598,72.427017 
	C82.566971,73.650772 84.236336,74.874535 85.967468,76.813538 
	C87.615799,78.572411 89.264122,80.331284 90.988022,82.852150 
	C91.801872,83.662621 92.615723,84.473091 93.442879,86.016838 
	C92.215454,88.603729 90.988037,91.190620 89.175827,94.175713 
	C87.820824,97.218315 86.465828,100.260925 85.110825,103.303528 
	C85.558670,103.497009 86.006508,103.690491 86.454346,103.883972 
	C87.855423,100.854988 89.256500,97.826004 91.033195,94.187279 
	C92.625694,91.948326 94.223404,89.712906 95.763786,87.438644 
	C95.788261,87.402519 95.109154,86.889832 95.049057,85.874680 
	C96.739319,82.236641 98.429581,78.598602 100.119843,74.960564 
	C95.418594,76.027695 97.680481,83.671982 91.024605,81.202538 
	C89.385216,79.436256 87.745834,77.669975 86.026031,75.180847 
M116.523926,41.374702 
	C117.096352,41.819508 117.668785,42.264309 118.834213,43.169899 
	C118.555305,39.946415 118.348320,37.554108 118.141335,35.161800 
	C117.559227,35.128735 116.977119,35.095669 116.395012,35.062603 
	C116.258347,37.043785 116.121689,39.024967 115.383759,41.320141 
	C113.511406,44.130081 111.639053,46.940022 109.766693,49.749962 
	C110.414268,50.081455 111.061852,50.412949 111.709427,50.744446 
	C113.139122,47.501560 114.568817,44.258675 116.523926,41.374702 
M115.522507,109.991920 
	C114.046967,108.357170 112.571426,106.722420 111.095886,105.087669 
	C110.598289,105.548744 110.100693,106.009827 109.603088,106.470901 
	C111.930923,109.338997 114.258759,112.207092 116.586594,115.075188 
	C117.123367,114.681305 117.660133,114.287422 118.196907,113.893532 
	C117.474533,112.766029 116.752151,111.638519 115.522507,109.991920 
M126.534752,70.551750 
	C124.392731,73.690956 122.250710,76.830154 120.108688,79.969353 
	C120.709297,80.360825 121.309898,80.752296 121.910507,81.143776 
	C123.881310,77.808151 125.865143,74.479927 127.776085,71.110367 
	C127.853981,70.973015 127.245338,70.446312 126.534752,70.551750 
M135.074646,53.392113 
	C134.598892,54.398720 134.123154,55.405327 133.647400,56.411934 
	C134.147202,56.680702 134.646988,56.949474 135.146790,57.218243 
	C136.771942,54.537849 138.397110,51.857452 140.022263,49.177055 
	C139.586334,48.889198 139.150391,48.601341 138.714462,48.313484 
	C137.639023,49.828773 136.563583,51.344067 135.074646,53.392113 
M101.497208,68.247055 
	C106.957832,68.190056 104.477905,63.110168 106.767723,61.047443 
	C106.321243,60.788597 105.874763,60.529755 105.428284,60.270912 
	C104.123436,62.709053 102.818596,65.147194 101.497208,68.247055 
M132.509872,63.026649 
	C130.792953,64.277534 129.076019,65.528412 127.359100,66.779297 
	C129.992477,66.801384 131.935364,66.259033 133.801758,65.522751 
	C133.919128,65.476448 133.439072,63.915718 132.509872,63.026649 
M112.968063,98.977592 
	C113.951508,97.016548 114.934959,95.055496 115.918404,93.094452 
	C115.274757,92.920959 114.631119,92.747467 113.987473,92.573975 
	C113.516190,94.865044 113.044899,97.156105 112.968063,98.977592 
M78.385307,65.363792 
	C76.951462,68.192795 76.955231,68.199455 81.682175,69.544540 
	C80.465561,67.770638 79.736458,66.707550 78.385307,65.363792 
M117.839722,90.146530 
	C118.117027,89.328644 118.394333,88.510750 118.671638,87.692863 
	C118.105415,87.716560 117.539200,87.740257 116.972977,87.763954 
	C117.116089,88.696991 117.259201,89.630035 117.839722,90.146530 
M120.850548,83.602814 
	C120.341995,83.321793 119.833435,83.040764 119.324883,82.759743 
	C119.134354,83.324059 118.943832,83.888374 118.753311,84.452690 
	C119.405533,84.361259 120.057755,84.269829 120.850548,83.602814 
M141.834229,76.308052 
	C142.056885,76.043945 142.279556,75.779839 142.502213,75.515732 
	C142.059784,75.387329 141.617371,75.258919 141.174942,75.130508 
	C141.246017,75.460190 141.317108,75.789879 141.834229,76.308052 
M109.807030,52.416248 
	C109.802536,52.794674 109.798042,53.173100 109.793556,53.551525 
	C109.950508,53.553143 110.243858,53.565456 110.244690,53.554832 
	C110.274208,53.178341 110.276314,52.799702 109.807030,52.416248 
M152.653351,91.967621 
	C152.909439,92.120872 153.165527,92.274124 153.421616,92.427376 
	C153.516113,92.162315 153.610611,91.897255 153.705093,91.632179 
	C153.324692,91.591064 152.944290,91.549942 152.653351,91.967621 
M108.707710,56.952404 
	C108.360771,57.042500 108.013840,57.132595 107.666901,57.222687 
	C107.994041,57.273010 108.321190,57.323338 108.707710,56.952404 
M101.170860,72.279312 
	C101.025215,72.385063 100.879570,72.490807 100.733925,72.596565 
	C100.934593,72.576080 101.135262,72.555595 101.170860,72.279312 
M98.574173,90.514503 
	C98.574173,90.514503 98.478371,90.568604 98.574173,90.514503 
z"/>
<path fill="#434A52" opacity="1.000000" stroke="none" 
	d="
M147.430328,115.044815 
	C149.872330,110.291138 152.983337,105.630333 155.391052,100.630814 
	C156.187668,98.976685 155.172211,96.449890 155.003204,94.526352 
	C159.560150,96.596474 160.127319,91.677895 161.870911,88.498383 
	C162.564011,87.234512 162.911880,85.781319 163.708099,84.207268 
	C164.630157,85.203651 165.588715,86.349556 165.812485,87.624428 
	C166.122208,89.389206 165.911194,91.251808 165.866272,93.071114 
	C165.760757,97.343002 167.277908,103.014000 165.119766,105.567574 
	C161.609070,109.721497 155.714767,111.886597 150.750000,114.758911 
	C149.983902,115.202118 148.810318,114.941025 147.430328,115.044815 
z"/>
<path fill="#3E454E" opacity="1.000000" stroke="none" 
	d="
M82.653336,167.060883 
	C82.629272,168.373062 82.527374,169.222885 82.676331,170.026215 
	C82.930473,171.396790 83.342056,172.738159 83.687515,174.091797 
	C84.283195,173.921997 85.406578,173.694611 85.395279,173.591034 
	C85.230217,172.078476 84.938515,170.577103 84.617699,169.085831 
	C84.523483,168.647888 84.244179,168.249771 83.698570,167.081650 
	C85.688248,166.927338 87.297081,166.802567 89.431740,166.637024 
	C89.431740,168.579849 89.372597,170.031372 89.443298,171.476532 
	C89.625351,175.197632 88.654243,177.269882 84.165283,177.181747 
	C79.956535,177.099167 78.534492,175.668076 78.833549,171.605286 
	C79.100868,167.973633 78.560944,164.258499 79.078438,160.681656 
	C79.274048,159.329605 81.419228,157.301300 82.702538,157.281052 
	C84.829140,157.247513 87.061150,158.436020 89.031746,159.508438 
	C89.349236,159.681198 88.542618,161.919540 88.255615,163.203064 
	C87.406433,162.528076 86.587227,161.809982 85.698425,161.191971 
	C85.009369,160.712860 84.233345,160.358856 82.688354,159.500580 
	C82.688354,162.385071 82.688354,164.481354 82.653336,167.060883 
z"/>
<path fill="#3B434B" opacity="1.000000" stroke="none" 
	d="
M142.036835,172.842804 
	C141.695969,176.817596 141.695969,176.817596 137.743713,176.311005 
	C137.743713,172.477264 137.743713,168.538834 137.743713,163.666428 
	C133.393784,167.881485 139.162201,174.711533 132.167358,177.702057 
	C132.167358,169.975021 132.167358,163.233963 132.167358,156.495316 
	C135.645828,156.404144 135.645828,156.404144 136.141602,161.822739 
	C141.101929,160.810654 142.644547,163.319458 142.065857,167.902222 
	C141.880341,169.371399 142.036880,170.883743 142.036835,172.842804 
z"/>
<path fill="#3D454D" opacity="1.000000" stroke="none" 
	d="
M151.287476,171.733002 
	C149.971756,174.195175 150.388611,178.140030 145.313553,176.446182 
	C150.034439,170.217270 149.870834,163.901840 145.598038,157.694244 
	C150.784332,155.754974 150.094482,160.037521 151.480225,162.011871 
	C153.946777,161.300720 152.337265,155.101135 157.775085,157.836166 
	C153.465805,164.031097 153.389099,170.346161 158.495880,176.315720 
	C152.478012,178.893921 154.017578,172.585999 151.287476,171.733002 
z"/>
<path fill="#394149" opacity="1.000000" stroke="none" 
	d="
M121.533295,178.419495 
	C120.742058,179.763626 119.990883,180.705551 119.239708,181.647476 
	C118.869507,181.417175 118.499306,181.186890 118.129105,180.956604 
	C118.129105,174.721039 118.129105,168.485458 118.129105,162.257706 
	C118.437912,162.075745 118.739799,161.740326 118.984169,161.777985 
	C121.790794,162.210571 126.495934,161.969376 127.012489,163.318146 
	C128.292862,166.661331 128.280945,170.873611 127.501419,174.456787 
	C127.165596,176.000443 123.646362,176.851547 121.533295,178.419495 
M123.611748,173.934464 
	C123.757042,170.741180 123.902344,167.547882 124.047638,164.354599 
	C123.400482,164.350327 122.753326,164.346054 122.106171,164.341782 
	C121.197845,167.581406 120.005272,170.816162 123.611748,173.934464 
z"/>
<path fill="#3B434B" opacity="1.000000" stroke="none" 
	d="
M103.991302,168.099930 
	C104.092278,161.783524 104.092278,161.783524 113.577240,161.921921 
	C113.577240,166.766251 113.577240,171.627441 113.577240,176.492950 
	C104.011574,177.786850 103.993652,177.771973 103.991302,168.099930 
M107.300659,167.883148 
	C107.631416,169.994156 107.962173,172.105164 108.292923,174.216187 
	C108.787918,174.105423 109.282913,173.994659 109.777908,173.883896 
	C109.777908,170.735413 109.777908,167.586914 109.777908,164.438431 
	C109.386734,164.315155 108.995560,164.191879 108.604378,164.068604 
	C108.171860,165.057785 107.739334,166.046951 107.300659,167.883148 
z"/>
<path fill="#3B434B" opacity="1.000000" stroke="none" 
	d="
M93.963150,172.826416 
	C93.963058,168.931824 93.963058,165.505157 93.963058,161.883621 
	C96.438980,161.883621 98.498222,161.883621 99.929558,161.883621 
	C98.960121,166.735016 97.999268,171.543472 97.008835,176.499985 
	C94.291924,176.801086 94.291924,176.801086 93.963150,172.826416 
z"/>
<path fill="#363E47" opacity="1.000000" stroke="none" 
	d="
M81.292686,111.806763 
	C81.930359,109.717842 82.864784,107.708961 83.799202,105.700089 
	C84.173012,105.746758 84.546814,105.793427 84.920624,105.840096 
	C84.309265,107.991104 83.697899,110.142105 83.037109,112.663162 
	C82.521591,112.651077 82.055511,112.268944 81.292686,111.806763 
z"/>
<path fill="#363E47" opacity="1.000000" stroke="none" 
	d="
M123.110680,120.900375 
	C124.404778,122.281387 125.698875,123.662399 127.000336,125.387817 
	C126.821304,125.765816 126.634888,125.799416 126.171951,125.898285 
	C124.917351,124.570503 123.939278,123.177467 122.982895,121.391907 
	C123.004601,120.999374 123.110680,120.900375 123.110680,120.900375 
z"/>
<path fill="#343C45" opacity="1.000000" stroke="none" 
	d="
M143.747238,40.221680 
	C143.580505,41.754864 143.156281,43.206512 142.732040,44.658157 
	C142.394943,44.573582 142.057846,44.489006 141.720749,44.404430 
	C141.971207,43.084076 142.221664,41.763721 142.718048,40.229733 
	C143.139221,40.057446 143.314484,40.098789 143.747238,40.221680 
z"/>
<path fill="#363E47" opacity="1.000000" stroke="none" 
	d="
M71.595055,60.009315 
	C71.299706,60.540558 71.004356,61.071800 70.547638,61.765331 
	C70.532776,60.843506 70.679291,59.759388 70.908371,58.330269 
	C70.990929,57.985260 70.957634,57.996441 70.877380,58.340271 
	C71.216522,58.802761 71.635933,58.921425 72.055336,59.040092 
	C72.055336,59.040092 71.991028,59.018902 71.755318,59.198647 
	C71.544762,59.588703 71.569908,59.799011 71.595055,60.009315 
z"/>
<path fill="#3E454E" opacity="1.000000" stroke="none" 
	d="
M121.866409,26.858387 
	C121.866409,26.858387 121.939293,26.541979 121.960037,26.380978 
	C122.633202,26.245529 123.285622,26.271082 124.121155,26.580654 
	C123.832672,26.921644 123.361099,26.978615 122.455910,27.024132 
	C122.022301,27.012674 121.866409,26.858387 121.866409,26.858387 
z"/>
<path fill="#363E47" opacity="1.000000" stroke="none" 
	d="
M102.067741,94.930229 
	C109.961159,99.471382 110.815834,103.478073 105.558723,112.260307 
	C105.381493,111.717812 105.048279,111.194595 105.178253,111.023743 
	C109.522720,105.312782 106.460464,101.173019 102.347946,97.202026 
	C102.049271,96.913620 102.103340,96.259895 101.999985,95.382767 
	C102.006569,94.989510 102.067741,94.930229 102.067741,94.930229 
z"/>
<path fill="#363E47" opacity="1.000000" stroke="none" 
	d="
M91.097244,81.910645 
	C97.680481,83.671982 95.418594,76.027695 100.119843,74.960564 
	C98.429581,78.598602 96.739319,82.236641 94.658073,86.171860 
	C93.987923,86.073875 93.708748,85.678719 93.429573,85.283562 
	C92.615723,84.473091 91.801872,83.662621 90.996063,82.425339 
	C91.004105,81.998528 91.097244,81.910645 91.097244,81.910645 
z"/>
<path fill="#363E47" opacity="1.000000" stroke="none" 
	d="
M115.776138,110.251465 
	C116.752151,111.638519 117.474533,112.766029 118.196907,113.893532 
	C117.660133,114.287422 117.123367,114.681305 116.586594,115.075188 
	C114.258759,112.207092 111.930923,109.338997 109.603088,106.470901 
	C110.100693,106.009827 110.598289,105.548744 111.095886,105.087669 
	C112.571426,106.722420 114.046967,108.357170 115.776138,110.251465 
z"/>
<path fill="#353D45" opacity="1.000000" stroke="none" 
	d="
M126.745651,70.326385 
	C127.245338,70.446312 127.853981,70.973015 127.776085,71.110367 
	C125.865143,74.479927 123.881310,77.808151 121.910507,81.143776 
	C121.309898,80.752296 120.709297,80.360825 120.108688,79.969353 
	C122.250710,76.830154 124.392731,73.690956 126.745651,70.326385 
z"/>
<path fill="#343C45" opacity="1.000000" stroke="none" 
	d="
M135.281403,53.125736 
	C136.563583,51.344067 137.639023,49.828773 138.714462,48.313484 
	C139.150391,48.601341 139.586334,48.889198 140.022263,49.177055 
	C138.397110,51.857452 136.771942,54.537849 135.146790,57.218243 
	C134.646988,56.949474 134.147202,56.680702 133.647400,56.411934 
	C134.123154,55.405327 134.598892,54.398720 135.281403,53.125736 
z"/>
<path fill="#363E47" opacity="1.000000" stroke="none" 
	d="
M101.505478,67.916199 
	C102.818596,65.147194 104.123436,62.709053 105.428284,60.270912 
	C105.874763,60.529755 106.321243,60.788597 106.767723,61.047443 
	C104.477905,63.110168 106.957832,68.190056 101.505478,67.916199 
z"/>
<path fill="#D3D4D6" opacity="1.000000" stroke="none" 
	d="
M93.436226,85.650200 
	C93.708748,85.678719 93.987923,86.073875 94.512733,86.534286 
	C95.109154,86.889832 95.788261,87.402519 95.763786,87.438644 
	C94.223404,89.712906 92.625694,91.948326 90.630173,94.229324 
	C90.071648,94.106758 89.916130,93.942139 89.760620,93.777512 
	C90.988037,91.190620 92.215454,88.603729 93.436226,85.650200 
z"/>
<path fill="#3E454E" opacity="1.000000" stroke="none" 
	d="
M115.985031,41.006149 
	C116.121689,39.024967 116.258347,37.043785 116.395012,35.062603 
	C116.977119,35.095669 117.559227,35.128735 118.141335,35.161800 
	C118.348320,37.554108 118.555305,39.946415 118.834213,43.169899 
	C117.668785,42.264309 117.096352,41.819508 116.261833,41.187469 
	C115.999741,41.000240 115.985031,41.006149 115.985031,41.006149 
z"/>
<path fill="#353D45" opacity="1.000000" stroke="none" 
	d="
M132.873413,63.043098 
	C133.439072,63.915718 133.919128,65.476448 133.801758,65.522751 
	C131.935364,66.259033 129.992477,66.801384 127.359100,66.779297 
	C129.076019,65.528412 130.792953,64.277534 132.873413,63.043098 
z"/>
<path fill="#353D45" opacity="1.000000" stroke="none" 
	d="
M115.999130,41.008015 
	C114.568817,44.258675 113.139122,47.501560 111.709427,50.744446 
	C111.061852,50.412949 110.414268,50.081455 109.766693,49.749962 
	C111.639053,46.940022 113.511406,44.130081 115.684395,41.163147 
	C115.985031,41.006149 115.999741,41.000240 115.999130,41.008015 
z"/>
<path fill="#363E47" opacity="1.000000" stroke="none" 
	d="
M86.106453,75.903687 
	C87.745834,77.669975 89.385216,79.436256 91.060928,81.556595 
	C91.097244,81.910645 91.004105,81.998528 90.958282,82.044342 
	C89.264122,80.331284 87.615799,78.572411 85.985916,76.406387 
	C86.004364,75.999229 86.106453,75.903687 86.106453,75.903687 
z"/>
<path fill="#D3D4D6" opacity="1.000000" stroke="none" 
	d="
M90.442368,94.534195 
	C89.256500,97.826004 87.855423,100.854988 86.454346,103.883972 
	C86.006508,103.690491 85.558670,103.497009 85.110825,103.303528 
	C86.465828,100.260925 87.820824,97.218315 89.468224,93.976608 
	C89.916130,93.942139 90.071648,94.106758 90.442368,94.534195 
z"/>
<path fill="#363E47" opacity="1.000000" stroke="none" 
	d="
M85.955032,76.048767 
	C84.236336,74.874535 82.566971,73.650772 80.897598,72.427017 
	C81.453888,71.851784 82.010178,71.276550 82.566467,70.701317 
	C83.719650,72.194496 84.872841,73.687668 86.066238,75.542267 
	C86.106453,75.903687 86.004364,75.999229 85.955032,76.048767 
z"/>
<path fill="#353D45" opacity="1.000000" stroke="none" 
	d="
M124.072548,49.930996 
	C125.699234,51.884937 127.325920,53.838875 128.952606,55.792816 
	C128.367798,56.190586 127.782982,56.588356 127.198166,56.986122 
	C126.125061,54.923450 125.051956,52.860783 123.990067,50.398872 
	C124.001289,49.999638 124.072548,49.930996 124.072548,49.930996 
z"/>
<path fill="#363E47" opacity="1.000000" stroke="none" 
	d="
M122.953484,121.050858 
	C121.222115,119.868248 119.541862,118.634155 117.861610,117.400063 
	C118.429138,116.834084 118.996666,116.268097 119.564194,115.702110 
	C120.718918,117.194160 121.873650,118.686211 123.069527,120.539322 
	C123.110680,120.900375 123.004601,120.999374 122.953484,121.050858 
z"/>
<path fill="#353D45" opacity="1.000000" stroke="none" 
	d="
M112.770844,99.212387 
	C113.044899,97.156105 113.516190,94.865044 113.987473,92.573975 
	C114.631119,92.747467 115.274757,92.920959 115.918404,93.094452 
	C114.934959,95.055496 113.951508,97.016548 112.770844,99.212387 
z"/>
<path fill="#363E47" opacity="1.000000" stroke="none" 
	d="
M78.696327,65.504128 
	C79.736458,66.707550 80.465561,67.770638 81.682175,69.544540 
	C76.955231,68.199455 76.951462,68.192795 78.696327,65.504128 
z"/>
<path fill="#363E47" opacity="1.000000" stroke="none" 
	d="
M73.248802,59.995022 
	C74.493866,60.902229 75.738930,61.809437 76.983994,62.716644 
	C76.646423,63.186726 76.308861,63.656811 75.971291,64.126892 
	C74.747612,63.256439 73.523933,62.385986 72.458115,61.203438 
	C72.826920,60.592567 73.037857,60.293793 73.248802,59.995022 
z"/>
<path fill="#363E47" opacity="1.000000" stroke="none" 
	d="
M99.979317,120.032608 
	C100.722687,118.147552 101.481247,116.230179 102.239807,114.312813 
	C102.835533,114.608025 103.431267,114.903236 104.026993,115.198441 
	C102.888901,116.773277 101.750809,118.348114 100.273178,119.980347 
	C99.933647,120.037727 99.994507,120.000290 99.979317,120.032608 
z"/>
<path fill="#353D45" opacity="1.000000" stroke="none" 
	d="
M123.966064,50.034374 
	C122.514664,48.542076 121.098495,47.015041 119.682335,45.488007 
	C120.195404,45.062202 120.708466,44.636398 121.221535,44.210598 
	C122.150803,45.883942 123.080070,47.557285 124.040939,49.580814 
	C124.072548,49.930996 124.001289,49.999638 123.966064,50.034374 
z"/>
<path fill="#434A52" opacity="1.000000" stroke="none" 
	d="
M149.003128,84.872093 
	C150.023895,86.165390 151.044662,87.458687 152.065430,88.751984 
	C151.701447,89.061989 151.337463,89.372002 150.973480,89.682014 
	C149.967285,88.356583 148.961105,87.031151 148.205856,85.326965 
	C148.638916,84.922836 148.821014,84.897461 149.003128,84.872093 
z"/>
<path fill="#343C45" opacity="1.000000" stroke="none" 
	d="
M137.048264,68.953072 
	C138.360001,70.149712 139.671753,71.346344 140.983490,72.542984 
	C140.483643,72.918091 139.983795,73.293190 139.483932,73.668297 
	C138.652130,72.362953 137.820312,71.057610 136.994659,69.375786 
	C137.000809,68.999298 137.048264,68.953072 137.048264,68.953072 
z"/>
<path fill="#353D45" opacity="1.000000" stroke="none" 
	d="
M117.621017,90.354805 
	C117.259201,89.630035 117.116089,88.696991 116.972977,87.763954 
	C117.539200,87.740257 118.105415,87.716560 118.671638,87.692863 
	C118.394333,88.510750 118.117027,89.328644 117.621017,90.354805 
z"/>
<path fill="#343C45" opacity="1.000000" stroke="none" 
	d="
M148.958359,84.548813 
	C148.821014,84.897461 148.638916,84.922836 148.181259,84.975372 
	C147.268188,84.243172 146.630661,83.483803 145.997223,82.361481 
	C146.001312,81.998528 146.039871,81.960869 146.039871,81.960869 
	C146.997772,82.715752 147.955688,83.470642 148.958359,84.548813 
z"/>
<path fill="#353D45" opacity="1.000000" stroke="none" 
	d="
M120.780258,83.890610 
	C120.057755,84.269829 119.405533,84.361259 118.753311,84.452690 
	C118.943832,83.888374 119.134354,83.324059 119.324883,82.759743 
	C119.833435,83.040764 120.341995,83.321793 120.780258,83.890610 
z"/>
<path fill="#343C45" opacity="1.000000" stroke="none" 
	d="
M131.038177,59.938580 
	C131.750412,59.381866 132.462646,58.825150 133.174881,58.268436 
	C133.431015,58.661335 133.687134,59.054234 133.943268,59.447132 
	C133.090683,59.813553 132.238098,60.179970 131.180969,60.283615 
	C130.976440,60.020840 131.038177,59.938580 131.038177,59.938580 
z"/>
<path fill="#3E454E" opacity="1.000000" stroke="none" 
	d="
M122.105240,27.084415 
	C121.776131,28.156712 121.364082,29.157267 120.952034,30.157822 
	C120.478081,29.922504 120.004128,29.687189 119.530182,29.451872 
	C120.103027,28.642912 120.675880,27.833950 121.557571,26.941689 
	C121.866409,26.858387 122.022301,27.012674 122.105240,27.084415 
z"/>
<path fill="#343C45" opacity="1.000000" stroke="none" 
	d="
M144.032333,78.949677 
	C144.688507,79.722595 145.344681,80.495506 146.020355,81.614647 
	C146.039871,81.960869 146.001312,81.998528 145.981476,82.017448 
	C145.302765,81.274673 144.643890,80.512978 143.986740,79.379349 
	C143.988464,79.007408 144.032333,78.949677 144.032333,78.949677 
z"/>
<path fill="#3E454E" opacity="1.000000" stroke="none" 
	d="
M113.054878,33.922462 
	C113.746788,34.598698 114.438698,35.274933 115.130608,35.951164 
	C114.770683,36.208687 114.410751,36.466213 114.050827,36.723736 
	C113.750763,36.008923 113.450699,35.294109 113.069626,34.292892 
	C112.988625,34.006485 113.054878,33.922462 113.054878,33.922462 
z"/>
<path fill="#343C45" opacity="1.000000" stroke="none" 
	d="
M141.611206,76.213806 
	C141.317108,75.789879 141.246017,75.460190 141.174942,75.130508 
	C141.617371,75.258919 142.059784,75.387329 142.502213,75.515732 
	C142.279556,75.779839 142.056885,76.043945 141.611206,76.213806 
z"/>
<path fill="#343C45" opacity="1.000000" stroke="none" 
	d="
M136.977112,69.022430 
	C136.568878,68.560638 136.154572,68.093979 135.833466,67.570198 
	C135.787735,67.495598 136.193970,67.143906 136.391022,66.920448 
	C136.599426,67.412773 136.807831,67.905106 137.032257,68.675255 
	C137.048264,68.953072 137.000809,68.999298 136.977112,69.022430 
z"/>
<path fill="#363E47" opacity="1.000000" stroke="none" 
	d="
M110.044647,52.418808 
	C110.276314,52.799702 110.274208,53.178341 110.244690,53.554832 
	C110.243858,53.565456 109.950508,53.553143 109.793556,53.551525 
	C109.798042,53.173100 109.802536,52.794674 110.044647,52.418808 
z"/>
<path fill="#363E47" opacity="1.000000" stroke="none" 
	d="
M101.973816,95.016739 
	C101.361809,94.552513 100.782547,94.061050 100.090790,93.287231 
	C99.978294,93.004875 100.028267,92.933815 100.028267,92.933815 
	C100.664444,93.392632 101.300613,93.851448 102.002266,94.620247 
	C102.067741,94.930229 102.006569,94.989510 101.973816,95.016739 
z"/>
<path fill="#434A52" opacity="1.000000" stroke="none" 
	d="
M152.608612,91.738220 
	C152.944290,91.549942 153.324692,91.591064 153.705093,91.632187 
	C153.610611,91.897255 153.516113,92.162315 153.421616,92.427376 
	C153.165527,92.274124 152.909439,92.120872 152.608612,91.738220 
z"/>
<path fill="#363E47" opacity="1.000000" stroke="none" 
	d="
M108.678024,57.163033 
	C108.321190,57.323338 107.994041,57.273010 107.666901,57.222687 
	C108.013840,57.132595 108.360771,57.042500 108.678024,57.163033 
z"/>
<path fill="#353D45" opacity="1.000000" stroke="none" 
	d="
M99.948029,93.036034 
	C99.520370,92.914604 99.122971,92.762016 98.725571,92.609421 
	C99.069649,92.594841 99.413734,92.580269 99.893036,92.749756 
	C100.028267,92.933815 99.978294,93.004875 99.948029,93.036034 
z"/>
<path fill="#343C45" opacity="1.000000" stroke="none" 
	d="
M143.963730,79.033905 
	C143.536591,78.912346 143.134201,78.764290 142.731796,78.616234 
	C143.075455,78.603043 143.419098,78.589844 143.897552,78.763161 
	C144.032333,78.949677 143.988464,79.007408 143.963730,79.033905 
z"/>
<path fill="#363E47" opacity="1.000000" stroke="none" 
	d="
M101.253395,72.407211 
	C101.135262,72.555595 100.934593,72.576080 100.733925,72.596558 
	C100.879570,72.490807 101.025215,72.385063 101.253395,72.407211 
z"/>
<path fill="#353D45" opacity="1.000000" stroke="none" 
	d="
M130.941940,60.058971 
	C130.509949,59.931400 130.112457,59.765701 129.714966,59.599998 
	C130.066254,59.587311 130.417526,59.574623 130.903503,59.750259 
	C131.038177,59.938580 130.976440,60.020840 130.941940,60.058971 
z"/>
<path fill="#F3F3F3" opacity="1.000000" stroke="none" 
	d="
M73.105972,59.702404 
	C73.037857,60.293793 72.826920,60.592567 72.330383,60.885044 
	C72.006874,60.714687 71.968941,60.550632 71.763031,60.197945 
	C71.569908,59.799011 71.544762,59.588703 71.754883,59.164791 
	C72.314484,59.104053 72.638809,59.256920 73.105972,59.702404 
z"/>
<path fill="#3E454E" opacity="1.000000" stroke="none" 
	d="
M112.952583,34.046024 
	C112.505020,33.920853 112.093498,33.756142 111.681976,33.591431 
	C112.046364,33.573235 112.410744,33.555035 112.915009,33.729652 
	C113.054878,33.922462 112.988625,34.006485 112.952583,34.046024 
z"/>
<path fill="#F3F3F3" opacity="1.000000" stroke="none" 
	d="
M110.385170,29.671392 
	C110.737503,30.171406 110.888786,30.834690 111.040070,31.497974 
	C110.650986,31.282274 110.261909,31.066572 109.835175,30.515158 
	C109.926392,30.064518 110.055252,29.949593 110.385170,29.671392 
z"/>
<path fill="#353D45" opacity="1.000000" stroke="none" 
	d="
M98.526276,90.541550 
	C98.478371,90.568604 98.574173,90.514503 98.526276,90.541550 
z"/>
<path fill="#F3F3F3" opacity="1.000000" stroke="none" 
	d="
M72.114120,58.647190 
	C71.635933,58.921425 71.216522,58.802761 70.881775,58.320145 
	C71.368584,58.055561 71.770752,58.154926 72.114120,58.647190 
z"/>
<path fill="#D3D4D6" opacity="1.000000" stroke="none" 
	d="
M123.174210,174.026276 
	C120.005272,170.816162 121.197845,167.581406 122.106171,164.341782 
	C122.753326,164.346054 123.400482,164.350327 124.047638,164.354599 
	C123.902344,167.547882 123.757042,170.741180 123.174210,174.026276 
z"/>
<path fill="#D3D4D6" opacity="1.000000" stroke="none" 
	d="
M107.303734,167.459641 
	C107.739334,166.046951 108.171860,165.057785 108.604378,164.068604 
	C108.995560,164.191879 109.386734,164.315155 109.777908,164.438431 
	C109.777908,167.586914 109.777908,170.735413 109.777908,173.883896 
	C109.282913,173.994659 108.787918,174.105423 108.292923,174.216187 
	C107.962173,172.105164 107.631416,169.994156 107.303734,167.459641 
z"/>
</svg>