<svg version="1.1" id="Layer_1" xmlns="http://www.w3.org/2000/svg" xmlns:xlink="http://www.w3.org/1999/xlink" x="0px" y="0px"
	 width="100%" viewBox="0 0 186 50" enable-background="new 0 0 186 50" xml:space="preserve">
<path fill="#1B1F2B" opacity="1.000000" stroke="none" 
	d="
M133.000000,51.000000 
	C88.666679,51.000000 44.833355,51.000000 1.000024,51.000000 
	C1.000016,34.333347 1.000016,17.666695 1.000008,1.000032 
	C62.999969,1.000022 124.999939,1.000022 186.999939,1.000011 
	C186.999954,17.666634 186.999954,34.333267 186.999969,50.999950 
	C169.166672,51.000000 151.333328,51.000000 133.000000,51.000000 
M25.811155,25.683826 
	C25.815821,27.846106 25.686388,30.022066 25.904736,32.162548 
	C25.972536,32.827213 26.983616,33.395653 27.562851,34.008148 
	C28.100824,33.353333 29.095522,32.706009 29.106407,32.042542 
	C29.220387,25.095341 29.176767,18.145554 29.176767,11.196483 
	C28.629644,10.940183 28.082521,10.683882 27.535397,10.427581 
	C21.243364,14.207276 21.656233,22.556717 17.149778,27.956959 
	C15.073878,23.159550 13.223314,18.353424 10.888711,13.795214 
	C10.143090,12.339420 8.114085,11.540945 6.002424,9.930995 
	C6.002424,19.038778 6.002424,26.422005 6.002424,33.805229 
	C6.712366,33.946671 7.422307,34.088112 8.132249,34.229553 
	C10.022393,29.578812 7.910164,23.954468 9.551786,18.536661 
	C12.153574,24.336111 14.409909,29.365538 16.666245,34.394962 
	C17.135458,34.354450 17.604673,34.313934 18.073887,34.273418 
	C20.421131,29.183783 22.768375,24.094147 25.115620,19.004509 
	C25.347456,19.109451 25.579292,19.214394 25.811129,19.319336 
	C25.811129,21.140816 25.811129,22.962296 25.811155,25.683826 
M77.350815,31.024807 
	C82.123116,35.534698 87.781822,35.382725 89.439758,30.700140 
	C81.437355,32.032761 80.805710,31.770390 80.106529,26.184229 
	C83.696617,26.184229 87.226006,26.184229 90.757339,26.184229 
	C90.952629,22.005531 89.843292,19.091335 86.249077,18.173487 
	C82.855759,17.306938 79.060577,17.709841 77.644066,21.286402 
	C76.585861,23.958279 77.156174,27.275131 77.350815,31.024807 
M73.307785,17.994837 
	C70.564560,19.668499 67.821327,21.342161 65.087608,23.010021 
	C64.320602,10.575797 64.320602,10.575797 61.833389,10.329361 
	C61.833389,18.103418 61.833389,25.859936 61.833389,33.759960 
	C67.235298,34.627422 63.387329,29.468754 65.531319,28.369774 
	C68.801468,29.606119 69.546410,35.478848 75.107780,33.500969 
	C72.469391,30.709351 70.117920,28.221315 67.930283,25.906635 
	C70.156029,23.110260 72.087051,20.684155 73.307785,17.994837 
M155.977829,35.364151 
	C155.977829,37.161518 155.977829,38.958885 155.977829,41.344131 
	C161.429047,39.930645 157.365646,35.347187 159.723175,33.277550 
	C160.776520,33.491585 162.232040,34.269760 163.301086,33.907490 
	C165.780746,33.067204 169.457031,32.190948 170.127274,30.390707 
	C171.209030,27.485205 171.106445,23.445162 169.843292,20.629328 
	C169.125092,19.028341 165.152100,18.628317 162.560471,18.209503 
	C160.516617,17.879208 158.343857,18.346506 155.977875,18.472946 
	C155.977875,23.771202 155.977875,29.083176 155.977829,35.364151 
M108.060486,31.006689 
	C106.866524,30.797495 105.672562,30.588299 104.279633,30.344242 
	C105.371887,34.041481 106.970306,34.992847 112.498703,33.849705 
	C114.709129,33.392643 117.691940,31.359631 118.197174,29.474272 
	C118.693665,27.621548 116.912796,24.680927 115.354851,22.895023 
	C113.913010,21.242193 111.337402,20.630543 109.476669,19.266323 
	C108.688362,18.688360 107.850327,17.144892 108.107712,16.422470 
	C108.470215,15.404979 109.765083,14.161690 110.777008,14.048378 
	C112.961006,13.803823 115.218704,14.217414 117.467049,14.363076 
	C116.762039,10.767941 112.068199,9.601770 107.802887,11.859184 
	C103.803139,13.976060 103.186394,18.287189 106.584137,21.235950 
	C107.819305,22.307894 109.583450,22.797276 110.738464,23.928102 
	C112.339241,25.495346 113.592987,27.417061 114.995323,29.187004 
	C112.958527,29.821369 110.921738,30.455734 108.060486,31.006689 
M38.133560,24.429358 
	C34.617851,25.201962 32.103531,27.026785 33.241600,30.956146 
	C34.343410,34.760303 37.651730,34.147118 40.681671,33.837612 
	C42.390324,33.663074 44.131424,33.806149 46.128307,33.806149 
	C46.128307,29.885370 46.653687,26.156591 45.914268,22.698233 
	C45.524502,20.875244 43.154057,18.676228 41.270039,18.172476 
	C38.858021,17.527546 35.377010,17.112686 34.361118,21.500011 
	C37.502861,21.679028 41.418903,18.044836 43.049431,23.714808 
	C41.505001,23.907669 40.214798,24.068783 38.133560,24.429358 
M134.838486,19.854841 
	C130.767563,19.126400 126.696648,18.397961 122.623932,17.669199 
	C121.024445,29.169556 121.728203,33.444710 125.408028,33.600716 
	C125.408028,30.619297 124.940742,27.540367 125.587349,24.716494 
	C125.961311,23.083288 128.130478,21.861145 129.491699,20.454000 
	C130.583542,21.872715 132.229462,23.151255 132.632477,24.744238 
	C133.184784,26.927296 132.646988,29.364212 132.884766,31.660395 
	C132.970520,32.488567 133.947678,33.224434 134.518051,34.002422 
	C134.997131,33.304058 135.899933,32.596405 135.884857,31.908876 
	C135.802109,28.133495 135.494598,24.363039 134.838486,19.854841 
M144.820297,17.965731 
	C143.244431,18.683319 141.668564,19.400906 140.092697,20.118492 
	C140.306885,20.513643 140.521072,20.908792 140.735260,21.303944 
	C147.215271,20.231142 147.215271,20.231142 148.815186,23.692238 
	C147.168930,23.964035 145.546432,24.175232 143.949097,24.507418 
	C140.623032,25.199118 138.343140,26.930544 139.163147,30.673733 
	C139.971954,34.365902 143.017914,34.181156 145.907349,33.979935 
	C147.836227,33.845604 149.763123,33.682720 152.194366,33.493408 
	C152.194366,30.655611 152.142593,27.545835 152.206650,24.438448 
	C152.299683,19.925936 150.369293,17.544544 144.820297,17.965731 
M96.318954,33.171642 
	C98.213799,33.367260 100.108635,33.562874 102.003479,33.758488 
	C102.095108,33.297787 102.186737,32.837082 102.278366,32.376377 
	C95.302956,30.448059 99.207153,25.010771 98.146675,21.190531 
	C99.687706,20.495466 100.990692,19.907766 101.605766,19.630344 
	C99.827103,17.284063 98.341812,15.324780 96.678963,13.131271 
	C95.343239,15.087786 93.857170,17.264530 92.974258,18.557791 
	C93.859055,20.956608 94.725044,22.539591 94.998405,24.219036 
	C95.444359,26.958803 95.503677,29.761501 96.318954,33.171642 
M53.878662,24.026381 
	C54.887756,20.870813 55.575500,17.907362 50.166096,18.050163 
	C50.166096,22.805481 50.081734,27.231907 50.241962,31.649464 
	C50.271660,32.468220 51.287552,33.251202 51.848278,34.050694 
	C52.465763,33.302891 53.522152,32.606560 53.617046,31.797462 
	C53.883747,29.523502 53.754433,27.203096 53.878662,24.026381 
z"/>
<path fill="#E8E9EA" opacity="1.000000" stroke="none" 
	d="
M25.811142,25.233801 
	C25.811129,22.962296 25.811129,21.140816 25.811129,19.319336 
	C25.579292,19.214394 25.347456,19.109451 25.115620,19.004509 
	C22.768375,24.094147 20.421131,29.183783 18.073887,34.273418 
	C17.604673,34.313934 17.135458,34.354450 16.666245,34.394962 
	C14.409909,29.365538 12.153574,24.336111 9.551786,18.536661 
	C7.910164,23.954468 10.022393,29.578812 8.132249,34.229553 
	C7.422307,34.088112 6.712366,33.946671 6.002424,33.805229 
	C6.002424,26.422005 6.002424,19.038778 6.002424,9.930995 
	C8.114085,11.540945 10.143090,12.339420 10.888711,13.795214 
	C13.223314,18.353424 15.073878,23.159550 17.149778,27.956959 
	C21.656233,22.556717 21.243364,14.207276 27.535397,10.427581 
	C28.082521,10.683882 28.629644,10.940183 29.176767,11.196483 
	C29.176767,18.145554 29.220387,25.095341 29.106407,32.042542 
	C29.095522,32.706009 28.100824,33.353333 27.562851,34.008148 
	C26.983616,33.395653 25.972536,32.827213 25.904736,32.162548 
	C25.686388,30.022066 25.815821,27.846106 25.811142,25.233801 
z"/>
<path fill="#E5E6E7" opacity="1.000000" stroke="none" 
	d="
M77.176064,30.664791 
	C77.156174,27.275131 76.585861,23.958279 77.644066,21.286402 
	C79.060577,17.709841 82.855759,17.306938 86.249077,18.173487 
	C89.843292,19.091335 90.952629,22.005531 90.757339,26.184229 
	C87.226006,26.184229 83.696617,26.184229 80.106529,26.184229 
	C80.805710,31.770390 81.437355,32.032761 89.439758,30.700140 
	C87.781822,35.382725 82.123116,35.534698 77.176064,30.664791 
z"/>
<path fill="#E6E7E8" opacity="1.000000" stroke="none" 
	d="
M73.662933,18.126442 
	C72.087051,20.684155 70.156029,23.110260 67.930283,25.906635 
	C70.117920,28.221315 72.469391,30.709351 75.107780,33.500969 
	C69.546410,35.478848 68.801468,29.606119 65.531265,28.369476 
	C63.387329,29.468754 67.235298,34.627422 61.833389,33.759960 
	C61.833389,25.859936 61.833389,18.103418 61.833389,10.329361 
	C64.320602,10.575797 64.320602,10.575797 65.087608,23.010021 
	C67.821327,21.342161 70.564560,19.668499 73.662933,18.126442 
z"/>
<path fill="#F0F1F1" opacity="1.000000" stroke="none" 
	d="
M155.977844,34.879650 
	C155.977875,29.083176 155.977875,23.771202 155.977875,18.472946 
	C158.343857,18.346506 160.516617,17.879208 162.560471,18.209503 
	C165.152100,18.628317 169.125092,19.028341 169.843292,20.629328 
	C171.106445,23.445162 171.209030,27.485205 170.127274,30.390707 
	C169.457031,32.190948 165.780746,33.067204 163.301086,33.907490 
	C162.232040,34.269760 160.776520,33.491585 159.723175,33.277550 
	C157.365646,35.347187 161.429047,39.930645 155.977829,41.344131 
	C155.977829,38.958885 155.977829,37.161518 155.977844,34.879650 
M167.459915,29.431852 
	C167.728897,27.835323 168.632233,25.978607 168.110443,24.706415 
	C167.417801,23.017647 165.502121,20.538610 164.311676,20.644497 
	C162.461899,20.809032 159.909653,22.533386 159.268356,24.212639 
	C158.604218,25.951681 159.174728,29.425447 160.462830,30.310863 
	C161.907913,31.304188 164.762039,30.247658 167.459915,29.431852 
z"/>
<path fill="#E3E4E5" opacity="1.000000" stroke="none" 
	d="
M108.472717,31.048393 
	C110.921738,30.455734 112.958527,29.821369 114.995323,29.187004 
	C113.592987,27.417061 112.339241,25.495346 110.738464,23.928102 
	C109.583450,22.797276 107.819305,22.307894 106.584137,21.235950 
	C103.186394,18.287189 103.803139,13.976060 107.802887,11.859184 
	C112.068199,9.601770 116.762039,10.767941 117.467049,14.363076 
	C115.218704,14.217414 112.961006,13.803823 110.777008,14.048378 
	C109.765083,14.161690 108.470215,15.404979 108.107712,16.422470 
	C107.850327,17.144892 108.688362,18.688360 109.476669,19.266323 
	C111.337402,20.630543 113.913010,21.242193 115.354851,22.895023 
	C116.912796,24.680927 118.693665,27.621548 118.197174,29.474272 
	C117.691940,31.359631 114.709129,33.392643 112.498703,33.849705 
	C106.970306,34.992847 105.371887,34.041481 104.279633,30.344242 
	C105.672562,30.588299 106.866524,30.797495 108.472717,31.048393 
z"/>
<path fill="#E6E6E8" opacity="1.000000" stroke="none" 
	d="
M38.529079,24.329628 
	C40.214798,24.068783 41.505001,23.907669 43.049431,23.714808 
	C41.418903,18.044836 37.502861,21.679028 34.361118,21.500011 
	C35.377010,17.112686 38.858021,17.527546 41.270039,18.172476 
	C43.154057,18.676228 45.524502,20.875244 45.914268,22.698233 
	C46.653687,26.156591 46.128307,29.885370 46.128307,33.806149 
	C44.131424,33.806149 42.390324,33.663074 40.681671,33.837612 
	C37.651730,34.147118 34.343410,34.760303 33.241600,30.956146 
	C32.103531,27.026785 34.617851,25.201962 38.529079,24.329628 
M36.699257,30.679274 
	C41.347145,32.230698 42.839649,31.113852 42.219448,24.775686 
	C39.821053,26.920523 38.073315,28.483490 36.699257,30.679274 
z"/>
<path fill="#E5E6E7" opacity="1.000000" stroke="none" 
	d="
M135.051361,20.222866 
	C135.494598,24.363039 135.802109,28.133495 135.884857,31.908876 
	C135.899933,32.596405 134.997131,33.304058 134.518051,34.002422 
	C133.947678,33.224434 132.970520,32.488567 132.884766,31.660395 
	C132.646988,29.364212 133.184784,26.927296 132.632477,24.744238 
	C132.229462,23.151255 130.583542,21.872715 129.491699,20.453999 
	C128.130478,21.861145 125.961311,23.083288 125.587349,24.716494 
	C124.940742,27.540367 125.408028,30.619297 125.408028,33.600716 
	C121.728203,33.444710 121.024445,29.169556 122.623932,17.669199 
	C126.696648,18.397961 130.767563,19.126400 135.051361,20.222866 
z"/>
<path fill="#E6E6E8" opacity="1.000000" stroke="none" 
	d="
M145.230713,17.959801 
	C150.369293,17.544544 152.299683,19.925936 152.206650,24.438448 
	C152.142593,27.545835 152.194366,30.655611 152.194366,33.493408 
	C149.763123,33.682720 147.836227,33.845604 145.907349,33.979935 
	C143.017914,34.181156 139.971954,34.365902 139.163147,30.673733 
	C138.343140,26.930544 140.623032,25.199118 143.949097,24.507418 
	C145.546432,24.175232 147.168930,23.964035 148.815186,23.692238 
	C147.215271,20.231142 147.215271,20.231142 140.735260,21.303944 
	C140.521072,20.908792 140.306885,20.513643 140.092697,20.118492 
	C141.668564,19.400906 143.244431,18.683319 145.230713,17.959801 
M147.579376,26.441563 
	C146.777191,26.583374 145.888840,26.554813 145.192947,26.906780 
	C144.139236,27.439718 143.054520,28.106592 142.343643,29.002686 
	C142.131165,29.270529 142.998596,31.027336 143.590286,31.165787 
	C144.729294,31.432293 146.631393,31.475208 147.120316,30.807632 
	C147.964417,29.655090 147.970795,27.889023 147.579376,26.441563 
z"/>
<path fill="#EDEDEE" opacity="1.000000" stroke="none" 
	d="
M96.022545,32.854645 
	C95.503677,29.761501 95.444359,26.958803 94.998405,24.219036 
	C94.725044,22.539591 93.859055,20.956608 92.974258,18.557791 
	C93.857170,17.264530 95.343239,15.087786 96.678963,13.131271 
	C98.341812,15.324780 99.827103,17.284063 101.605766,19.630344 
	C100.990692,19.907766 99.687706,20.495466 98.146675,21.190531 
	C99.207153,25.010771 95.302956,30.448059 102.278366,32.376377 
	C102.186737,32.837082 102.095108,33.297787 102.003479,33.758488 
	C100.108635,33.562874 98.213799,33.367260 96.022545,32.854645 
z"/>
<path fill="#CFD0D3" opacity="1.000000" stroke="none" 
	d="
M53.829975,24.463692 
	C53.754433,27.203096 53.883747,29.523502 53.617046,31.797462 
	C53.522152,32.606560 52.465763,33.302891 51.848278,34.050694 
	C51.287552,33.251202 50.271660,32.468220 50.241962,31.649464 
	C50.081734,27.231907 50.166096,22.805481 50.166096,18.050163 
	C55.575500,17.907362 54.887756,20.870813 53.829975,24.463692 
z"/>
<path fill="#222531" opacity="1.000000" stroke="none" 
	d="
M167.231506,29.757423 
	C164.762039,30.247658 161.907913,31.304188 160.462830,30.310863 
	C159.174728,29.425447 158.604218,25.951681 159.268356,24.212639 
	C159.909653,22.533386 162.461899,20.809032 164.311676,20.644497 
	C165.502121,20.538610 167.417801,23.017647 168.110443,24.706415 
	C168.632233,25.978607 167.728897,27.835323 167.231506,29.757423 
z"/>
<path fill="#363943" opacity="1.000000" stroke="none" 
	d="
M36.512417,30.362865 
	C38.073315,28.483490 39.821053,26.920523 42.219448,24.775686 
	C42.839649,31.113852 41.347145,32.230698 36.512417,30.362865 
z"/>
<path fill="#363943" opacity="1.000000" stroke="none" 
	d="
M147.954010,26.410969 
	C147.970795,27.889023 147.964417,29.655090 147.120316,30.807632 
	C146.631393,31.475208 144.729294,31.432293 143.590286,31.165787 
	C142.998596,31.027336 142.131165,29.270529 142.343643,29.002686 
	C143.054520,28.106592 144.139236,27.439718 145.192947,26.906780 
	C145.888840,26.554813 146.777191,26.583374 147.954010,26.410969 
z"/>
</svg>