<svg version="1.1" id="Layer_1" xmlns="http://www.w3.org/2000/svg" xmlns:xlink="http://www.w3.org/1999/xlink" x="0px" y="0px"
	 width="100%" viewBox="0 0 189 75" enable-background="new 0 0 189 75" xml:space="preserve">
<path fill="#1E1F45" opacity="1.000000" stroke="none" 
	d="
M155.000000,76.000000 
	C103.333351,76.000000 52.166702,76.000000 1.000041,76.000000 
	C1.000027,51.000027 1.000027,26.000055 1.000014,1.000061 
	C63.999950,1.000041 126.999901,1.000041 189.999878,1.000021 
	C189.999924,25.999941 189.999924,50.999882 189.999969,75.999908 
	C178.500000,76.000000 167.000000,76.000000 155.000000,76.000000 
M151.878098,45.991489 
	C154.317520,45.770733 157.322662,47.109535 158.352936,43.222713 
	C158.628448,42.183372 160.192429,40.571774 160.779785,40.722595 
	C161.937347,41.019836 163.304169,42.185524 163.731430,43.314770 
	C164.832367,46.224483 166.471283,46.602135 169.388519,45.136913 
	C166.841156,37.623917 164.330627,30.219542 161.820084,22.815166 
	C161.370071,22.823002 160.920044,22.830837 160.470032,22.838673 
	C158.993942,26.646811 157.517868,30.454950 156.056015,34.226334 
	C153.222580,31.506546 158.992584,23.739498 149.260559,25.431505 
	C143.442673,24.467657 147.288193,30.419399 144.320847,32.023666 
	C143.400009,30.509052 142.659912,28.816729 141.485565,27.516645 
	C140.611084,26.548517 139.174515,26.088100 137.988266,25.401560 
	C137.466354,26.487555 136.746338,27.526379 136.473602,28.671713 
	C136.146500,30.045372 136.200821,31.509855 136.089966,32.935009 
	C135.825592,32.994263 135.561218,33.053516 135.296844,33.112770 
	C133.830826,29.656410 132.364807,26.200050 130.492645,21.786158 
	C128.519547,26.563198 127.021446,30.190233 125.523346,33.817268 
	C124.247948,31.935362 124.267899,30.266273 123.788628,28.755566 
	C123.397881,27.523916 122.410118,26.481672 121.687088,25.355442 
	C120.680244,26.236469 119.350647,26.938765 118.740967,28.039728 
	C117.787674,29.761198 117.321648,31.752491 116.162613,34.987633 
	C114.926376,31.419836 114.437340,29.308596 113.453735,27.460579 
	C112.950638,26.515354 111.625603,25.730755 110.541893,25.508629 
	C110.112564,25.420633 108.853348,27.019279 108.785606,27.911741 
	C108.337479,33.816120 108.110664,39.737301 107.854080,44.815781 
	C111.478455,46.085411 114.168991,47.027916 117.076782,48.046528 
	C117.651611,46.761444 118.505493,44.852509 119.441750,42.759426 
	C122.431023,47.434875 125.364983,47.288887 128.000473,42.630428 
	C129.646927,39.720177 131.790909,39.448933 132.897827,42.583416 
	C134.548904,47.258785 137.570419,46.124641 140.849823,45.526379 
	C141.067215,43.252083 141.263153,41.202145 141.564072,38.053993 
	C144.115005,41.966206 146.048248,44.931087 148.087845,48.059082 
	C148.928360,47.156174 149.464935,46.579754 150.526123,46.051388 
	C150.696106,46.007252 150.866074,45.963120 151.878098,45.991489 
M55.410484,38.343109 
	C55.831997,38.574314 56.253510,38.805523 56.807438,39.946217 
	C56.830021,42.444294 56.919609,44.943996 56.859219,47.440067 
	C56.772343,51.030560 58.223347,51.905270 61.928917,49.929890 
	C61.928917,46.394310 61.928917,42.643730 61.928917,39.011726 
	C70.499283,37.533943 70.499283,37.533943 70.395409,34.275368 
	C67.673805,34.067112 64.924622,33.856747 62.060921,33.637615 
	C62.060921,31.367527 62.060921,29.454092 62.060921,27.324459 
	C65.592392,27.324459 68.810669,27.324459 72.608269,27.324459 
	C72.608269,35.294468 72.608269,42.902569 72.608269,50.649597 
	C83.397629,50.649597 93.601288,50.649597 103.804947,50.649597 
	C104.078636,50.197243 104.352318,49.744888 104.626007,49.292534 
	C103.549461,48.422470 102.593712,47.185825 101.363991,46.780613 
	C100.007004,46.333462 98.383621,46.504868 96.902771,46.659904 
	C92.813515,47.088028 92.198151,44.793797 92.421814,41.455444 
	C92.694313,37.388290 95.796661,38.862049 97.967331,38.271332 
	C99.129219,37.955151 100.083313,36.875393 101.131180,36.140224 
	C100.105194,35.422054 99.167946,34.367878 98.031548,34.067768 
	C96.488319,33.660217 94.792732,33.829563 92.875923,33.737759 
	C92.875923,31.433874 92.875923,29.425917 92.875923,27.482906 
	C103.372108,25.974768 103.372108,25.974768 103.247131,22.451611 
	C98.194901,22.451611 93.146545,22.451611 87.594986,22.451611 
	C87.594986,28.978275 87.399963,35.122875 87.663544,41.247738 
	C87.839279,45.331249 86.470909,46.757553 82.287933,46.759987 
	C78.095734,46.762428 77.246330,44.958862 77.353798,41.324543 
	C77.539467,35.046001 77.405273,28.758001 77.405273,22.086391 
	C65.703316,22.086391 54.728405,21.996025 43.761459,22.249765 
	C42.836517,22.271168 41.258999,24.561954 41.191162,25.861418 
	C40.902596,31.388906 41.068554,36.940121 41.068554,42.482674 
	C40.681084,42.538288 40.293613,42.593899 39.906139,42.649513 
	C37.207241,34.996464 34.508343,27.343416 31.809444,19.690369 
	C31.296059,19.711903 30.782673,19.733435 30.269285,19.754967 
	C27.409891,27.927212 24.550497,36.099457 21.320105,45.332027 
	C19.734367,42.556271 18.704424,40.753403 17.739594,39.064514 
	C21.948866,33.917393 22.883238,30.301022 20.527422,26.629299 
	C16.896194,20.969751 11.207219,22.107988 5.121441,22.222809 
	C5.121441,31.403267 5.018588,40.179237 5.289604,48.943642 
	C5.315108,49.768402 7.694733,50.520367 9.639712,51.708176 
	C9.903675,46.807552 10.084392,43.452431 10.265109,40.097305 
	C10.818016,39.917412 11.370922,39.737514 11.923829,39.557621 
	C13.422923,41.926811 14.973545,44.265354 16.406158,46.674084 
	C17.753126,48.938816 18.626768,51.323898 22.196812,51.116863 
	C25.979221,50.897507 25.059057,47.641541 26.456072,45.926125 
	C27.633204,44.480709 29.425426,42.663059 30.972233,42.637535 
	C32.517708,42.612038 34.838821,44.267132 35.530186,45.776321 
	C38.289066,51.798672 38.623653,52.120358 45.688793,50.143852 
	C45.763130,49.397060 45.889404,48.586388 45.917870,47.772297 
	C46.228046,38.901688 46.223877,38.901543 55.410484,38.343109 
z"/>
<path fill="#09DC5D" opacity="1.000000" stroke="none" 
	d="
M55.021015,38.059536 
	C46.223877,38.901543 46.228046,38.901688 45.917870,47.772297 
	C45.889404,48.586388 45.763130,49.397060 45.688793,50.143852 
	C38.623653,52.120358 38.289066,51.798672 35.530186,45.776321 
	C34.838821,44.267132 32.517708,42.612038 30.972233,42.637535 
	C29.425426,42.663059 27.633204,44.480709 26.456072,45.926125 
	C25.059057,47.641541 25.979221,50.897507 22.196812,51.116863 
	C18.626768,51.323898 17.753126,48.938816 16.406158,46.674084 
	C14.973545,44.265354 13.422923,41.926811 11.923829,39.557621 
	C11.370922,39.737514 10.818016,39.917412 10.265109,40.097305 
	C10.084392,43.452431 9.903675,46.807552 9.639712,51.708176 
	C7.694733,50.520367 5.315108,49.768402 5.289604,48.943642 
	C5.018588,40.179237 5.121441,31.403267 5.121441,22.222809 
	C11.207219,22.107988 16.896194,20.969751 20.527422,26.629299 
	C22.883238,30.301022 21.948866,33.917393 17.739594,39.064514 
	C18.704424,40.753403 19.734367,42.556271 21.320105,45.332027 
	C24.550497,36.099457 27.409891,27.927212 30.269285,19.754967 
	C30.782673,19.733435 31.296059,19.711903 31.809444,19.690369 
	C34.508343,27.343416 37.207241,34.996464 39.906139,42.649513 
	C40.293613,42.593899 40.681084,42.538288 41.068554,42.482674 
	C41.068554,36.940121 40.902596,31.388906 41.191162,25.861418 
	C41.258999,24.561954 42.836517,22.271168 43.761459,22.249765 
	C54.728405,21.996025 65.703316,22.086391 77.405273,22.086391 
	C77.405273,28.758001 77.539467,35.046001 77.353798,41.324543 
	C77.246330,44.958862 78.095734,46.762428 82.287933,46.759987 
	C86.470909,46.757553 87.839279,45.331249 87.663544,41.247738 
	C87.399963,35.122875 87.594986,28.978275 87.594986,22.451611 
	C93.146545,22.451611 98.194901,22.451611 103.247131,22.451611 
	C103.372108,25.974768 103.372108,25.974768 92.875923,27.482906 
	C92.875923,29.425917 92.875923,31.433874 92.875923,33.737759 
	C94.792732,33.829563 96.488319,33.660217 98.031548,34.067768 
	C99.167946,34.367878 100.105194,35.422054 101.131180,36.140224 
	C100.083313,36.875393 99.129219,37.955151 97.967331,38.271332 
	C95.796661,38.862049 92.694313,37.388290 92.421814,41.455444 
	C92.198151,44.793797 92.813515,47.088028 96.902771,46.659904 
	C98.383621,46.504868 100.007004,46.333462 101.363991,46.780613 
	C102.593712,47.185825 103.549461,48.422470 104.626007,49.292534 
	C104.352318,49.744888 104.078636,50.197243 103.804947,50.649597 
	C93.601288,50.649597 83.397629,50.649597 72.608269,50.649597 
	C72.608269,42.902569 72.608269,35.294468 72.608269,27.324459 
	C68.810669,27.324459 65.592392,27.324459 62.060921,27.324459 
	C62.060921,29.454092 62.060921,31.367527 62.060921,33.637615 
	C64.924622,33.856747 67.673805,34.067112 70.395409,34.275368 
	C70.499283,37.533943 70.499283,37.533943 61.928917,39.011726 
	C61.928917,42.643730 61.928917,46.394310 61.928917,49.929890 
	C58.223347,51.905270 56.772343,51.030560 56.859219,47.440067 
	C56.919609,44.943996 56.830021,42.444294 56.828896,39.035416 
	C56.850353,34.531853 56.850353,30.939093 56.850353,27.258917 
	C52.879635,27.258917 49.643734,27.258917 46.351555,27.258917 
	C46.351555,29.664186 46.351555,31.685888 46.351555,32.997555 
	C49.211243,35.779152 55.440563,30.658628 55.021015,38.059536 
M15.960332,33.546459 
	C17.491611,28.204191 16.257385,26.809158 10.245459,27.449932 
	C10.245459,29.818718 10.245459,32.218781 10.245459,35.211884 
	C12.236407,34.750576 13.784164,34.391956 15.960332,33.546459 
z"/>
<path fill="#09DB5C" opacity="1.000000" stroke="none" 
	d="
M150.001526,46.003334 
	C149.464935,46.579754 148.928360,47.156174 148.087845,48.059082 
	C146.048248,44.931087 144.115005,41.966206 141.564072,38.053993 
	C141.263153,41.202145 141.067215,43.252083 140.849823,45.526379 
	C137.570419,46.124641 134.548904,47.258785 132.897827,42.583416 
	C131.790909,39.448933 129.646927,39.720177 128.000473,42.630428 
	C125.364983,47.288887 122.431023,47.434875 119.441750,42.759426 
	C118.505493,44.852509 117.651611,46.761444 117.076782,48.046528 
	C114.168991,47.027916 111.478455,46.085411 107.854080,44.815781 
	C108.110664,39.737301 108.337479,33.816120 108.785606,27.911741 
	C108.853348,27.019279 110.112564,25.420633 110.541893,25.508629 
	C111.625603,25.730755 112.950638,26.515354 113.453735,27.460579 
	C114.437340,29.308596 114.926376,31.419836 116.162613,34.987633 
	C117.321648,31.752491 117.787674,29.761198 118.740967,28.039728 
	C119.350647,26.938765 120.680244,26.236469 121.687088,25.355442 
	C122.410118,26.481672 123.397881,27.523916 123.788628,28.755566 
	C124.267899,30.266273 124.247948,31.935362 125.523346,33.817268 
	C127.021446,30.190233 128.519547,26.563198 130.492645,21.786158 
	C132.364807,26.200050 133.830826,29.656410 135.296844,33.112770 
	C135.561218,33.053516 135.825592,32.994263 136.089966,32.935009 
	C136.200821,31.509855 136.146500,30.045372 136.473602,28.671713 
	C136.746338,27.526379 137.466354,26.487555 137.988281,25.401564 
	C139.174515,26.088100 140.611084,26.548517 141.485565,27.516645 
	C142.659912,28.816729 143.400009,30.509052 144.320847,32.023666 
	C147.288193,30.419399 143.442673,24.467657 149.626740,25.806919 
	C149.994934,26.433794 149.994080,26.685244 150.013153,27.410864 
	C150.024460,33.924473 150.012985,39.963905 150.001526,46.003334 
z"/>
<path fill="#09DE5D" opacity="1.000000" stroke="none" 
	d="
M149.990356,26.936684 
	C149.994080,26.685244 149.994934,26.433794 149.988251,25.993801 
	C158.992584,23.739498 153.222580,31.506546 156.056015,34.226334 
	C157.517868,30.454950 158.993942,26.646811 160.470032,22.838673 
	C160.920044,22.830837 161.370071,22.823002 161.820084,22.815166 
	C164.330627,30.219542 166.841156,37.623917 169.388519,45.136913 
	C166.471283,46.602135 164.832367,46.224483 163.731430,43.314770 
	C163.304169,42.185524 161.937347,41.019836 160.779785,40.722595 
	C160.192429,40.571774 158.628448,42.183372 158.352936,43.222713 
	C157.322662,47.109535 154.317520,45.770733 151.431366,45.492920 
	C150.653214,38.975132 150.321777,32.955906 149.990356,26.936684 
z"/>
<path fill="#1C3147" opacity="1.000000" stroke="none" 
	d="
M55.215752,38.201324 
	C55.440563,30.658628 49.211243,35.779152 46.351555,32.997555 
	C46.351555,31.685888 46.351555,29.664186 46.351555,27.258917 
	C49.643734,27.258917 52.879635,27.258917 56.850353,27.258917 
	C56.850353,30.939093 56.850353,34.531853 56.762688,38.580673 
	C56.253510,38.805523 55.831997,38.574314 55.215752,38.201324 
z"/>
<path fill="#0FA555" opacity="1.000000" stroke="none" 
	d="
M150.013153,27.410864 
	C150.321777,32.955906 150.653214,38.975132 151.010330,45.456673 
	C150.866074,45.963120 150.696106,46.007252 150.263824,46.027359 
	C150.012985,39.963905 150.024460,33.924473 150.013153,27.410864 
z"/>
<path fill="#1D2946" opacity="1.000000" stroke="none" 
	d="
M15.646126,33.789898 
	C13.784164,34.391956 12.236407,34.750576 10.245459,35.211884 
	C10.245459,32.218781 10.245459,29.818718 10.245459,27.449932 
	C16.257385,26.809158 17.491611,28.204191 15.646126,33.789898 
z"/>
</svg>